<?xml version="1.0" encoding="utf-8"?>
<!-- Generator: Adobe Illustrator 24.1.2, SVG Export Plug-In . SVG Version: 6.00 Build 0)  -->
<svg version="1.1" id="Camada_1" xmlns="http://www.w3.org/2000/svg" xmlns:xlink="http://www.w3.org/1999/xlink" x="0px" y="0px"
	 viewBox="0 0 240 74" style="enable-background:new 0 0 240 74;" xml:space="preserve">
<style type="text/css">
	.st0{fill:#F9F0EB;}
	.st1{fill:#E68256;}
	.st2{fill:#E58154;}
	.st3{fill:#F9F0EC;}
	.st4{fill:#E88D65;}
	.st5{fill:#E7855B;}
</style>
<path class="st0" d="M3.8,35.1c1.9-0.8,3.8-1.9,5.8-2.5c3.3-1,6.7-1.7,10.1-2.4c2-0.4,4-0.5,6-0.6c4-0.1,8-0.2,12.1-0.2
	c2.7,0,5.4,0.1,8.2,0.1c2.7,0,5.3-0.1,8-0.2c0.8,0,1.7-0.4,2.5-0.7c0.9-0.4,1.1-1.6,0.6-2.5c-0.9-1.5-2.3-2.4-3.9-3.1
	c-2.4-1-5-1.3-7.5-1.6c-5.6-0.6-11.3-0.5-16.9-0.5c-0.1,0-0.1,0-0.2-0.1c0-0.1,0-0.2,0-0.2c2.9-0.1,5.7-0.2,8.6-0.2
	c2.9,0,5.8,0.1,8.8,0.4c3,0.3,6,0.7,9,1.2c0.6,0.1,1.2,0.6,1.6,1c1.9,2.1,3.2,4.6,4.1,7.4c0,0.1,0,0.2,0,0.2c-1.1,0-2.1,0-3.2,0
	c-1.3-0.1-2.6-0.3-3.8-0.3c-6.7-0.1-13.5-0.2-20.2-0.1c-3.8,0.1-7.6,0.4-11.4,0.9c-4.7,0.5-9.3,1.3-13.7,2.9
	c-1.1,0.4-2.2,0.9-3.2,1.3c-0.2,0.1-0.5,0.1-0.7,0.2C3.9,35.4,3.8,35.3,3.8,35.1z"/>
<path class="st0" d="M53.9,32.5c-0.2-0.2-0.3-0.3-0.4-0.3c0-0.1,0-0.1,0-0.2c1.6,0.1,3.3,0.2,5.1,0.4c-4.4,0.7-8.8,0.5-12.9,2
	c0.5,0.9,1.3,1,2,1.2c2.5,0.8,5.1,0.7,7.7,0.4c1.6-0.2,3.2-0.4,4.7-0.8c1.6-0.5,3.1-1.3,4.5-2.1c1.4-0.8,1.6-0.8,2.5,0.5
	c0.8,1.1,1.6,2.2,2.3,3.3c0.3,0.4,0.3,1,0.4,1.6c-0.1,0-0.2,0.1-0.3,0.1c-0.2-0.5-0.4-1-0.6-1.4c-0.7-2.1-2.2-3.1-4.7-2.3
	c-2.1,0.6-4.1,1.4-6.2,2.1c-4.9,1.6-9.7,1.9-14.5-0.4c-0.6-0.3-1.1-0.5-1.7-0.9c-0.3-0.1-0.4-0.4-0.6-0.6c0.2-0.2,0.4-0.6,0.7-0.6
	c1.2-0.3,2.4-0.7,3.7-0.8C48.5,33,51.1,32.7,53.9,32.5z"/>
<path class="st0" d="M51.7,20.4c-2.1-0.2-4.2-0.5-6.2-0.7c-0.7-0.1-1.5-0.2-2.2-0.2c-3.6-0.1-7.1-0.3-10.7-0.1
	c-4.1,0.2-8.1,0.6-12,2c-3,1-5.8,2.4-7.4,5.4c-0.5,0.9-0.8,2-0.9,3c-0.1,0.8-0.5,0.9-1.1,1c-0.4,0-0.8,0-1.5,0
	c0.5-1.2,1-2.2,1.4-3.3c0.7-1.6,1.4-3.3,2.2-4.9c0.7-1.5,2-2,3.6-2.2c1.9-0.2,3.7-0.5,5.6-0.8c1.3-0.2,2.6-0.4,3.9-0.4
	c4.6-0.2,9.2-0.4,13.8-0.3c2.6,0,5.2,0.5,7.8,0.8c1.2,0.1,2.4,0.4,3.6,0.6C51.7,20.3,51.7,20.4,51.7,20.4z"/>
<path class="st0" d="M4,42.9c-0.3-0.1-0.5-0.1-0.8-0.2c0-0.4,0-0.8,0-1.1c0.5-0.2,0.9-0.3,1.4-0.5c0-0.1,0-0.2-0.1-0.3
	c-0.3,0-0.6-0.1-1-0.1c2.5,0,5-0.5,7.8,0.3c-0.8,0.6-0.8,1.1-0.6,1.8c0.1,0.5-0.2,1.1-0.3,1.7c-0.1,0-0.2,0-0.3,0.1
	c0.3,0.2,0.6,0.4,0.8,0.6c-0.1,0.1-0.4,0.3-0.6,0.4c0.2,0.2,0.4,0.5,0.6,0.7c0.1,0.1,0.2,0.2,0.3,0.4c0,0.1-0.1,0.2-0.2,0.3
	c-0.9,0.3-0.7,0.6-0.1,1.1c-0.3,0.4-1.3-0.2-1,0.9c-2.2-0.1-4.4,0.2-6.7-0.4c0.2-0.2,0.3-0.3,0.4-0.3c0.1-0.1,0.2-0.1,0.2-0.1
	c-0.1-0.3-0.3-0.6-0.4-0.8c0.2-0.1,0.5-0.2,0.7-0.3c0.2-0.1,0.3-0.2,0.5-0.4c-0.2-0.1-0.3-0.3-0.5-0.3c-0.2-0.1-0.3,0-0.5,0
	c-0.2-0.6-0.3-1,0.5-1C3.1,44.5,3.8,43.7,4,42.9z M6.5,44.1c0.7-0.1,1.4-0.2,2-0.2c0.6,0,1-0.3,0.9-0.8c-0.1-0.4-0.5-0.8-0.9-0.9
	c-0.6-0.2-1.4-0.2-2-0.2c-1.2,0-1.2,0-1.2,1.2c0,0.5-0.1,0.9-0.1,1.4c0,0.2,0.3,0.4,0.4,0.6c0,0,0,0.1,0.1,0.1
	c-0.3,0-0.5,0.1-0.8,0.1c0,0.3,0,0.6,0,0.8c0.5,0.2,0.9,0.3,1.3,0.5c0,0.1,0,0.2-0.1,0.3C5.7,46.9,5.3,47,4.9,47c0,0.1,0,0.2,0,0.3
	c0.8-0.1,1.6-0.2,2.4-0.2C8.2,47,9,47,9.8,46.9c0.2,0,0.4-0.2,0.5-0.3c-0.2-0.1-0.3-0.3-0.5-0.3c-0.2-0.1-0.7,0-0.7-0.1
	c-0.3-0.9-1-0.7-1.6-0.7C6.5,45.3,6.3,45.1,6.5,44.1z"/>
<path class="st0" d="M12.3,47.6c0.5-0.4,0.6-0.8,0.1-1.3c-0.1-0.1-0.1-0.4-0.1-0.6c0-0.5,0.1-0.9,0.2-1.5c0.3-0.2,0.6-1,0.3-1.6
	c-0.1-0.3-0.4-0.7-0.4-0.7c0.3-0.3,0.6-0.6,1-0.7c1.7-0.8,3.5-0.6,5.2-0.5c0.6,0,1.2,0.2,0.7,1.1c-0.1,0.1,0.1,0.5,0.3,0.6
	c0.8,0.5,0.9,1.5,0.2,2.1c0.4,0.9,0.5,1.7,0,2.6c-0.2,0.3-0.1,0.7-0.2,1c-0.1,0.2-0.2,0.4-0.4,0.4c-0.7,0.2-1.4,0.3-2.1,0.4
	c-0.8,0.1-1.6,0-2.3,0c-0.6,0-1.2,0-1.5-0.7C13.3,47.9,12.8,47.8,12.3,47.6z M14.3,44.5c-0.1,0.5-0.1,0.8-0.2,1.2
	c-0.2,0.6,0.2,1.6,0.8,1.6c1,0,1.9,0,2.9,0c0.6,0,1.2-1,1-1.4c-0.2-0.5-0.5-1-0.7-1.5c0.8-0.4,0.9-0.6,0.8-1.5
	c-0.1-0.6-0.5-0.6-0.9-0.6c-1.2-0.1-2.4-0.1-3.6-0.2c0.1,0.5,0.2,0.9,0.1,1.3c-0.1,0.7,0.2,0.9,0.9,0.8c0.3,0,0.6,0,0.9,0.1
	c0,0.1,0,0.2,0,0.3C15.6,44.5,14.9,44.5,14.3,44.5z"/>
<path class="st1" d="M50.3,42.5c-0.2-0.1-0.3-0.1-0.5-0.2c0-0.4,0-0.7,0-0.9c0.6-0.4,1.1-0.8,1.7-0.9c0.5-0.1,1.1,0.1,1.7,0.2
	c0,0.1,0,0.2,0,0.3c-0.2,0.1-0.4,0.3-0.7,0.6c0.4,0.3,0.7,0.5,1,0.7c0.2,0.1,0.4,0.4,0.4,0.6c-0.1,1-0.2,1,0.6,1.1
	c0.1,0.4,0.1,0.7,0.2,1.1c0,0.3,0,0.6,0,0.8c0,0.2,0.2,0.4,0.3,0.5c0.8,0.3,1.1,1,0.6,1.8c0.2,0.1,0.4,0.2,0.7,0.4
	c-0.8,0.1-1.6,0.6-2.2-0.1c-0.1-0.2-0.1-0.5,0-0.7c0.3-0.6-0.3-1.2-1.2-1.1c-0.3,0.2-0.6,0.5-0.9,0.5c-1,0-1.9,0-2.6,0.9
	c0.1,0.1,0.2,0.3,0.4,0.5c-0.6,0.1-1,0.2-1.5,0.2c-0.2,0-0.5,0-1.1-0.1c0.6-0.8,1.1-1.4,1.6-2c-0.8-0.4-1-0.7-0.1-1.1
	c0.3-0.1,0.5-0.8,0.6-1.2c0.1-0.8,0.1-1.5,1.2-1.8C50.4,42.7,50.4,42.6,50.3,42.5z M51.4,44c-0.2,0.5-0.5,1-0.7,1.5
	c0.5,0,0.9,0.1,1.2,0.1c-0.3,0.8-0.2,0.8,1.1,0.7c-0.1-0.6-0.1-1.3-0.3-1.9c-0.1-0.3-0.4-0.5-0.6-0.8c-0.2-0.2-0.4-0.4-0.6-0.6
	c-0.2,0.2-0.4,0.5-0.6,0.7C51.3,44,51.4,44,51.4,44z"/>
<path class="st0" d="M27.5,46.2c0.4,0.3,0.8,0.6,1.2,1c-0.1,0-0.2,0.2-0.4,0.3c0.3,0.4,0.5,0.9,0.8,1.3c-1.4,0.5-2.8-0.6-2.3-1.7
	c-0.7-0.3-1.1-0.8-0.9-1.6c-0.9-0.3-1.7-0.1-2.4,0.5c-0.1,0.1-0.2,0.4-0.2,0.6c0,0.2,0.3,0.3,0.4,0.4c0.4,0.1,0.8,0,1.1,0
	c0,0.1,0,0.2,0,0.3c-0.5,0-1,0.1-1.6,0.1c0,0.5,0.1,1,0.1,1.5c-0.6-0.1-1.4,0.2-1.6-0.6c-0.2-0.5-0.1-1.1,1.1-0.9
	c-1.4-0.7-1.4-0.8-0.4-1.9c-0.5-0.3-1.2-0.5-0.7-1.4c1.7,0,3.5,0,5.3,0c-0.2-0.5-0.6-1.1,0.3-1.1c0.1,0,0.3-0.2,0.4-0.3
	c-0.1-0.1-0.3-0.3-0.4-0.3c-1.3-0.1-2.7-0.1-4-0.2c-0.5,0-1-0.1-1.6-0.2c0.9-0.6,0.9-0.7,0.1-1.1c1.4-0.6,6.3-0.2,7.1,0.6
	c-0.2,0.3-1.1,0.7,0.1,0.9c0.1,0,0.3,0.2,0.3,0.4c0,0.1-0.2,0.2-0.3,0.3c-0.2,0.1-0.4,0.2-0.6,0.4c0.3,0.1,0.5,0.2,0.8,0.3
	c0.2,0.1,0.3,0.1,0.5,0.3c-0.2,0-0.5,0.1-0.7,0.1c-0.6,0-0.7,0.5-0.8,0.9c-0.1,0.4-0.2,0.8-0.2,1.2C27.7,46.1,27.6,46.2,27.5,46.2z"
	/>
<path class="st0" d="M33.2,48.7c-0.4,0-1,0-1.9,0c0.2-0.4,0.3-0.8,0.6-0.9c0.8-0.4,0.9-1.1,0.4-1.6c0.4-0.7,0.8-1.3,1.2-1.9
	c0-0.1,0.1-0.2,0.1-0.2c-0.6-0.8,0.2-1,0.4-1.2c-0.1-0.6-0.2-1.1-0.2-1.3c0.7-0.5,1.1-0.8,1.6-1.1c0.7-0.4,1.2,0,1.7,0.4
	c-0.7,0.8-0.7,0.9,0.6,1.8c-0.2,0.5-0.3,1,0.4,1.4c0.4,0.2,0.7,1.6,0.5,1.9c0.4,0.6,0.8,1,1.1,1.4c0.1,0.1,0.1,0.3,0,0.3
	c-1,0.9,0.2,0.6,0.6,1c-0.7,0-1.3,0.1-1.9,0c-0.2,0-0.5-0.6-0.5-0.8c0.2-0.9,0.1-1.2-0.8-1.5c-0.1,0-0.1-0.1-0.1-0.1
	c-0.1-0.8-0.1-1.5-0.1-2.1c-0.3-0.3-0.6-0.5-0.8-0.7c-0.2-0.2-0.4-0.3-0.6-0.5c-0.1,0.3-0.1,0.7-0.2,1c0,0,0,0.1,0,0
	c-0.3,0.5-0.5,1-0.8,1.6c0.5,0,0.9,0.1,1.2,0.1c0,0-0.1,0.1-0.1,0.1c0.2,0.2,0.3,0.4,0.5,0.5c0.2,0.2,0.3,0.3,0.5,0.5
	c-0.2,0.1-0.4,0.3-0.6,0.3c-0.9,0.1-1.8-0.2-2.5,0.6C33.3,48,33.3,48.3,33.2,48.7z"/>
<path class="st0" d="M16,33.8c12.2-3.3,24.5-3.2,37-1.8C40.6,31.4,28.2,31.7,16,33.8z"/>
<path class="st1" d="M63.6,44.7c0.5-0.2,1.1-0.6,1.7-0.8c0.8-0.2,0.9-0.8,0.7-1.4c-0.1-0.5-0.4-1-1.1-1c-0.6,0.1-1.3,0.1-1.9,0
	c-0.4-0.1-0.6-0.5-1-0.8c0.3-0.2,0.6-0.6,0.9-0.6c1.2-0.1,2.4,0,3.5,0c0.1,0,0.2,0,0.2,0.1c0.5,0.4,0.9,0.8,1.4,1.2
	c-0.3,0.1-0.6,0.2-0.9,0.3c0.8,1.1,0.4,2-0.5,2.8c-0.6,0.5-1.1,1-1.7,1.5c-0.1-0.1-0.1-0.1-0.2-0.2c-0.1,0.3-0.2,0.6-0.2,0.9
	c-1.2-0.1-1.2-0.2-0.7-1.2C64,45.3,63.8,45.1,63.6,44.7z"/>
<path class="st2" d="M60.4,41c-0.2,0.1-0.5,0.2-0.7,0.3c0,0.1,0,0.1,0,0.2c0.4,0.1,0.8,0.2,1.4,0.3c-0.5,0.1-0.8,0.1-1,0.1
	c-0.2,0.5-0.3,0.9-0.5,1.4c0.2,0.1,0.5,0.1,0.7,0.2c0.1,0.4,0.2,0.7,0.3,1.2c-0.2,0-0.4,0.1-0.8,0.2c0.1,0.5,0.4,1,0.4,1.5
	c-0.1,0.7,0.4,1.6-0.3,2.1c-0.3,0.2-0.9,0.2-1.3,0.2c0-0.3,0-0.6,0-1c0,0,0,0,0.1,0c-0.1-1.1-0.3-2.1-0.4-3.1
	c0.2-0.2,0.5-0.4,0.6-0.6c0-0.1-0.3-0.4-0.5-0.6c-0.1-0.1-0.2-0.3-0.2-0.3c0.2-0.5,0.4-0.9,0.7-1.4c-0.7-0.2-0.7-0.4-0.1-0.9
	C59.2,40.3,60,40.3,60.4,41z"/>
<path class="st3" d="M60.9,31.2c1.2,0.1,2.3-0.2,3.2-1c0.3-0.3,0.9-0.1,1.3-0.2c0.3-0.1,0.6-0.3,0.9-0.5c-0.2-0.3-0.3-0.7-0.6-0.8
	c-1.6-0.8-2.6-0.4-3.1,1.3c-0.1,0.1-0.1,0.3-0.4,0.4c-0.1-0.7-0.3-1.4-0.3-2.1c0-0.2,0.3-0.5,0.5-0.5c0.6-0.1,1.3-0.2,2-0.2
	c1.2,0.1,2.4,0.1,3.1,1.4c0.5,1,0.1,2.1-1.1,2c-1.5-0.1-2.9,0.1-4.2,0.9c-0.2,0.1-0.7-0.2-1.1-0.4C60.8,31.4,60.8,31.3,60.9,31.2z"
	/>
<path class="st0" d="M7.9,30.3c0-0.1-0.1-0.2-0.1-0.4c-0.5-2.2-2-2-3.6-1.2c-0.2,0.1-0.4,0.5-0.3,0.6c0.1,0.2,0.4,0.5,0.6,0.5
	c1-0.1,1.8,0.3,2.6,0.9c0.5,0.4,1.2,0.4,1.9,0.6C8.8,31.9,8.5,32,8,31.7C6.8,31,5.5,31,4.1,30.9c-0.5,0-1.2-0.3-1.3-0.6
	c-0.2-0.4,0-1.1,0.2-1.5c0.4-0.8,1.1-1.2,2-1.2c0.6,0,1.1-0.1,1.7-0.2c1.4,0,1.6,0.2,1.5,1.5c0,0.4-0.1,0.9-0.2,1.3
	C8,30.3,7.9,30.3,7.9,30.3z"/>
<path class="st4" d="M60.5,38.4c-0.4,0.5-0.8,1.1-1.2,1.6c-0.1,0.1-0.4,0.1-0.6,0.1c-0.1,0-0.1-0.4-0.1-0.5c0.1-0.3,0.3-0.5,0.4-0.7
	c0.1-0.1,0.3-0.2,0.3-0.3C59.7,37.6,59.7,37.6,60.5,38.4z"/>
<path class="st5" d="M65.6,47.8c-0.8,1-1.3,1.3-1.8,1c-0.7-0.4-0.1-1,0-1.1C64.4,47,64.9,47.6,65.6,47.8z"/>
<path class="st0" d="M3.6,35.8c0,0-0.1,0.1-0.1,0c0,0,0-0.1-0.1-0.1c0,0,0.1-0.1,0.1,0C3.5,35.6,3.5,35.7,3.6,35.8z"/>
</svg>
